<svg width="18" height="19" viewBox="0 0 18 19" fill="none" xmlns="http://www.w3.org/2000/svg">
<path d="M15.5693 9.99169C15.2089 8.3837 13.4706 7.53696 11.6764 7.94128C11.3011 8.02564 10.9391 7.79759 10.8988 7.45136C10.7094 5.79739 9.22857 4.61608 7.42588 4.86126C5.35875 5.14388 3.80818 7.01158 4.02027 8.86317L4.75422 15.2335C4.80174 15.6449 5.2024 15.8973 5.64831 15.7968L12.5526 14.2386C14.5609 13.7858 15.9812 11.8361 15.5693 9.99169Z" fill="url(#paint0_linear_17_91)"/>
<path d="M14.1498 2.27139C13.8522 1.72461 13.1272 1.53998 12.5105 1.80319C12.3774 1.85991 12.2267 1.80516 12.1748 1.68115C11.9352 1.10663 11.2703 0.786055 10.6341 0.993348C9.90464 1.23157 9.52775 1.99803 9.79599 2.64119L10.7204 4.85368C10.7802 4.99654 10.9531 5.05942 11.1064 4.99399L13.4796 3.98026C14.1699 3.68557 14.4906 2.89867 14.1498 2.27139Z" fill="url(#paint1_linear_17_91)"/>
<defs>
<linearGradient id="paint0_linear_17_91" x1="7.68167" y1="-0.929989" x2="18.6042" y2="11.3022" gradientUnits="userSpaceOnUse">
<stop stop-color="#B936F5"/>
<stop offset="1" stop-color="#C64C85"/>
<stop offset="1" stop-color="#F1005B"/>
</linearGradient>
<linearGradient id="paint1_linear_17_91" x1="10.1324" y1="-1.07958" x2="15.3215" y2="2.64099" gradientUnits="userSpaceOnUse">
<stop stop-color="#B936F5"/>
<stop offset="1" stop-color="#C64C85"/>
<stop offset="1" stop-color="#F1005B"/>
</linearGradient>
</defs>
</svg>