<svg width="23" height="21" viewBox="0 0 23 21" fill="none" xmlns="http://www.w3.org/2000/svg">
<path fill-rule="evenodd" clip-rule="evenodd" d="M3.68648 1.52466C1.97518 1.52466 0.587891 2.91194 0.587891 4.62325V17.0176C0.587891 18.7289 1.97518 20.1162 3.68648 20.1162H16.0808C17.7922 20.1162 19.1794 18.7289 19.1794 17.0176V4.62325C19.1794 4.12338 19.0611 3.65115 18.8508 3.23307C18.3213 2.13621 17.3216 1.77079 17.1615 1.71832C16.8251 1.5931 16.4609 1.52466 16.0808 1.52466H3.68648ZM17.1615 1.71832C17.1473 1.71364 17.1397 1.71145 17.1397 1.71145C15.5786 3.16775 14.4275 4.44835 13.3011 5.70153C12.5863 6.49671 11.8815 7.28084 11.0881 8.09182L9.61486 6.33835C8.50786 5.06807 6.59142 4.94514 5.33437 6.0638C4.07732 7.18245 3.95568 9.11907 5.06268 10.3894L9.1631 15.0838C9.74085 15.7467 10.5736 16.1255 11.4478 16.123C12.322 16.1206 13.1526 15.737 13.7266 15.0707L19.1791 8.80624V4.77812C19.1791 4.14807 19.0474 3.64019 18.8508 3.23307C18.5012 2.53776 17.8975 1.99221 17.1615 1.71832Z" fill="url(#paint0_linear_35_11)"/>
<path d="M17.1397 1.71145L17.2089 1.47123L17.0727 1.43199L16.9691 1.52865L17.1397 1.71145ZM13.3011 5.70153L13.487 5.86865L13.3011 5.70153ZM11.0881 8.09182L10.8967 8.25264L11.074 8.46371L11.2668 8.26665L11.0881 8.09182ZM9.61486 6.33835L9.8063 6.17751L9.80334 6.1741L9.61486 6.33835ZM5.33437 6.0638L5.16818 5.87704L5.33437 6.0638ZM5.06268 10.3894L4.87421 10.5536L4.87439 10.5538L5.06268 10.3894ZM9.1631 15.0838L9.35157 14.9195L9.35139 14.9193L9.1631 15.0838ZM11.4478 16.123L11.4485 16.373L11.4478 16.123ZM13.7266 15.0707L13.538 14.9066L13.5372 14.9076L13.7266 15.0707ZM19.1791 8.80624L19.3677 8.97037L19.4291 8.8998V8.80624H19.1791ZM0.837891 4.62325C0.837891 3.05002 2.11325 1.77466 3.68648 1.77466V1.27466C1.83711 1.27466 0.337891 2.77387 0.337891 4.62325H0.837891ZM0.837891 17.0176V4.62325H0.337891V17.0176H0.837891ZM3.68648 19.8662C2.11325 19.8662 0.837891 18.5908 0.837891 17.0176H0.337891C0.337891 18.867 1.83711 20.3662 3.68648 20.3662V19.8662ZM16.0808 19.8662H3.68648V20.3662H16.0808V19.8662ZM18.9294 17.0176C18.9294 18.5909 17.6541 19.8662 16.0808 19.8662V20.3662C17.9302 20.3662 19.4294 18.867 19.4294 17.0176H18.9294ZM18.9294 4.62325V17.0176H19.4294V4.62325H18.9294ZM18.6275 3.34539C18.8206 3.72941 18.9294 4.16326 18.9294 4.62325H19.4294C19.4294 4.0835 19.3015 3.5729 19.0742 3.12076L18.6275 3.34539ZM17.0837 1.95589C17.2213 2.001 18.1406 2.33694 18.6257 3.34176L19.076 3.12439C18.5021 1.93548 17.422 1.54059 17.2394 1.48075L17.0837 1.95589ZM16.0808 1.77466C16.4307 1.77466 16.7653 1.83762 17.0743 1.95262L17.2487 1.48402C16.8848 1.34857 16.4912 1.27466 16.0808 1.27466V1.77466ZM3.68648 1.77466H16.0808V1.27466H3.68648V1.77466ZM17.1397 1.71145C17.0704 1.95167 17.0704 1.95167 17.0704 1.95167C17.0704 1.95167 17.0704 1.95167 17.0704 1.95167C17.0704 1.95166 17.0704 1.95166 17.0704 1.95166C17.0703 1.95165 17.0703 1.95164 17.0703 1.95164C17.0703 1.95163 17.0702 1.95162 17.0702 1.95161C17.0701 1.95159 17.07 1.95157 17.07 1.95155C17.0699 1.95152 17.0698 1.95149 17.0697 1.95148C17.0696 1.95144 17.0696 1.95145 17.0697 1.95148C17.07 1.95155 17.0707 1.95176 17.0718 1.9521C17.074 1.95279 17.078 1.95404 17.0837 1.95589L17.2394 1.48075C17.2307 1.47792 17.2238 1.47574 17.2187 1.47416C17.2161 1.47338 17.214 1.47274 17.2124 1.47226C17.2116 1.47201 17.2109 1.47181 17.2103 1.47164C17.21 1.47155 17.2097 1.47147 17.2095 1.47141C17.2094 1.47137 17.2093 1.47134 17.2092 1.47131C17.2091 1.4713 17.2091 1.47128 17.209 1.47127C17.209 1.47126 17.209 1.47126 17.209 1.47125C17.2089 1.47125 17.2089 1.47124 17.2089 1.47124C17.2089 1.47124 17.2089 1.47124 17.2089 1.47124C17.2089 1.47123 17.2089 1.47123 17.1397 1.71145ZM13.487 5.86865C14.6134 4.6155 15.758 3.34228 17.3102 1.89426L16.9691 1.52865C15.3992 2.99322 14.2416 4.2812 13.1151 5.5344L13.487 5.86865ZM11.2668 8.26665C12.0644 7.45133 12.7726 6.66338 13.487 5.86865L13.1151 5.5344C12.4 6.33003 11.6985 7.11035 10.9094 7.917L11.2668 8.26665ZM9.42345 6.49917L10.8967 8.25264L11.2795 7.93101L9.80627 6.17753L9.42345 6.49917ZM5.50057 6.25056C6.65348 5.22458 8.41056 5.33693 9.42639 6.5026L9.80334 6.1741C8.60517 4.7992 6.52937 4.66571 5.16818 5.87704L5.50057 6.25056ZM5.25116 10.2251C4.234 9.05792 4.34614 7.27789 5.50057 6.25056L5.16818 5.87704C3.80851 7.08701 3.67736 9.18022 4.87421 10.5536L5.25116 10.2251ZM9.35139 14.9193L5.25097 10.2249L4.87439 10.5538L8.97481 15.2482L9.35139 14.9193ZM11.4471 15.8731C10.6459 15.8753 9.88201 15.5282 9.35157 14.9195L8.97463 15.248C9.59969 15.9653 10.5013 16.3758 11.4485 16.373L11.4471 15.8731ZM13.5372 14.9076C13.0102 15.5193 12.2482 15.8708 11.4471 15.8731L11.4485 16.373C12.3957 16.3703 13.295 15.9547 13.916 15.2339L13.5372 14.9076ZM18.9905 8.6421L13.538 14.9066L13.9152 15.2349L19.3677 8.97037L18.9905 8.6421ZM18.9291 4.77812V8.80624H19.4291V4.77812H18.9291ZM18.6257 3.34176C18.8052 3.71363 18.9291 4.18418 18.9291 4.77812H19.4291C19.4291 4.11196 19.2895 3.56675 19.076 3.12439L18.6257 3.34176ZM17.0743 1.95262C17.7506 2.20432 18.306 2.70602 18.6275 3.34539L19.0742 3.12076C18.6964 2.36951 18.0443 1.7801 17.2487 1.48402L17.0743 1.95262Z" fill="white"/>
<path fill-rule="evenodd" clip-rule="evenodd" d="M21.9354 1.04777C22.727 1.72013 22.8101 2.89123 22.1208 3.66349L12.4842 13.9554C12.1244 14.3585 11.6039 14.5905 11.0561 14.592C10.5083 14.5935 9.9864 14.3644 9.62434 13.9633L5.91787 9.70875C5.22414 8.94031 5.30037 7.76876 6.08813 7.09204C6.8759 6.41532 8.07688 6.48968 8.77061 7.25813L11.0425 9.9237L19.2539 1.22866C19.9431 0.456402 21.1437 0.375415 21.9354 1.04777Z" fill="url(#paint1_linear_35_11)" stroke="white" stroke-width="0.5"/>
<defs>
<linearGradient id="paint0_linear_35_11" x1="2.31122" y1="-0.160967" x2="26.1571" y2="7.45647" gradientUnits="userSpaceOnUse">
<stop stop-color="#C54A92"/>
<stop offset="1" stop-color="#2E62EB"/>
</linearGradient>
<linearGradient id="paint1_linear_35_11" x1="6.95978" y1="1.5047" x2="25.0295" y2="8.60556" gradientUnits="userSpaceOnUse">
<stop stop-color="#C54A92"/>
<stop offset="1" stop-color="#2E62EB"/>
</linearGradient>
</defs>
</svg>