<svg width="4" height="5" viewBox="0 0 4 5" fill="none" xmlns="http://www.w3.org/2000/svg">
<path d="M0.25158 1.45435L0.219213 1.12598C0.205507 0.98694 0.302537 0.846602 0.435614 0.812989L3.20018 0.0981986C3.3339 0.0636628 3.45309 0.148155 3.46601 0.286639L3.74944 3.1621C3.76315 3.30114 3.66612 3.44148 3.53304 3.47509L3.21724 3.55665C3.0821 3.59156 2.96184 3.50355 2.95083 3.3623L2.81984 1.61161L0.985214 4.26511C0.900313 4.3879 0.748105 4.42721 0.643812 4.35328L0.392884 4.1754C0.288592 4.10147 0.272991 3.9432 0.357892 3.82041L2.19252 1.16691L0.523097 1.64132C0.387612 1.68011 0.264792 1.59579 0.25158 1.45435Z" fill="#F4F9FE"/>
</svg>